<?xml version="1.0" encoding="utf-8"?>
<!-- Generator: Adobe Illustrator 24.0.2, SVG Export Plug-In . SVG Version: 6.00 Build 0)  -->
<svg version="1.1" id="Layer_1" xmlns="http://www.w3.org/2000/svg" xmlns:xlink="http://www.w3.org/1999/xlink" x="0px" y="0px"
	 viewBox="0 0 1080 1350" style="enable-background:new 0 0 1080 1350;" xml:space="preserve">
<style type="text/css">
	.st0{fill:#FD0201;}
	.st1{stroke:#000000;stroke-width:2;}
	.st2{stroke:#000000;stroke-width:4;}
</style>
<g>
	<g>
		<path class="st0" d="M3138.02,708.27c-1.24-0.94-2.58-1.77-3.89-2.63c-42.37-28.04-84.77-56.06-127.07-84.2
			c-2.44-1.63-4.15-2.19-7.21-1.24c-15.69,4.86-31.6,9.05-47.29,13.94c-5.4,1.68-8.37,0.52-11.56-4.19
			c-13.45-19.87-27.35-39.42-41.02-59.13c-2.09-3.02-4.58-5.34-7.75-7.28c-29.75-18.21-59.28-36.79-89.18-54.74
			c-11.82-7.1-22.7-16.08-36.09-20.28c-15.91-4.99-32.04-9.32-48-14.16c-16.61-5.03-33.36-8.29-50.87-6.93
			c-25.67,2.01-51.41,1.26-77.12,1.41c-3.35,0.02-6.62-0.09-10-0.95c-10.79-2.75-21.77-4.77-32.56-7.54
			c-3.62-0.93-4.95-0.41-5.18,3.32c-0.29,4.93-1.05,9.83-1.27,14.77c-0.16,3.37-1.1,3.76-4.54,3.23c-17.7-2.74-35.47-5.1-53.25-7.27
			c-1.83-0.22-4.54-2.38-5.99,0.51c-1.13,2.24,1.23,3.59,2.33,5.17c9.06,13.08,18.12,26.15,27.24,39.19
			c1.96,2.81,2.8,5.74,3.19,9.27c1.66,14.92,3.77,29.8,6,44.65c0.76,5.01,0.94,9.63-1.28,14.4c-3.56,7.66-6.73,15.5-9.96,23.32
			c-1.28,3.1-1.27,5.16,3.2,5.98c8.09,1.5,16.03,3.82,23.98,5.97c2.52,0.68,4.48,0.01,6.22-1.57c17.32-15.8,37.95-27.22,55.84-42.24
			c1.85-1.55,2.96-1.76,5.14-0.63c12.31,6.4,24.73,12.56,37.26,18.88c-9.03,9.13-17.62,18.01-26.47,26.6
			c-2.39,2.32-3.42,4.56-2.59,7.68c6.81,25.59,13.6,51.2,20.47,76.78c0.68,2.56,1.87,3.96,4.7,1.47c4.39-3.85,8.77-7.93,13.81-10.74
			c6.62-3.69,6.37-8.53,4.86-14.71c-3.89-16.06-7.42-32.2-10.96-48.33c-0.44-2.01-1.55-4.41,0.93-6.12
			c13.24-9.09,26.48-18.18,40.55-27.84c-0.96,10.95-1.76,20.73-2.72,30.49c-0.28,2.84,0.51,5.2,1.89,7.59
			c7.33,12.79,14.71,25.57,21.79,38.51c1.94,3.53,4.46,6.05,7.94,7.77c6.79,3.35,13.65,6.54,20.39,10c4.32,2.22,6.57,2.15,6.4-3.71
			c-0.34-11.21-1.08-21.93-13.86-26.69c-5.17-1.92-5.72-6.14-4.92-11.06c1.02-6.19,1.87-12.44,2.41-18.69
			c0.67-7.85,4.57-10.16,11.39-6.12c21.88,13.01,43.67,26.15,65.55,39.16c2.47,1.47,3.78,3.1,4.5,6.1
			c2.8,11.7,6.34,23.22,9.11,34.93c0.71,3.02,1.95,4.68,4.47,6.07c28.94,16,57.49,32.64,84.66,51.59c3.34,2.33,5.59,4.8,6.99,8.48
			c5.93,15.56,11.92,31.1,18.01,46.6c1.3,3.31,2.23,7.13,5.12,9.33c7.86,5.96,16.03,11.51,24.03,17.28c1.95,1.4,4.68,1.87,4.9-0.5
			c0.61-6.48,4.41-12.84,0.7-19.63c-7.1-12.98-13.36-26.35-18.78-41.3c10.09,6.15,19.15,11.93,28.47,17.23
			c4.2,2.38,6.52,5.58,8.37,9.95c8.69,20.46,15.41,41.75,25.6,61.58c6.59,12.82,6.58,12.51,17.87,3.24
			c4.66-3.82,5.15-7.39,4.32-13.24c-2.8-19.83-10.27-38.27-15.45-57.38c-4.19-15.45-10.98-28.99-23.6-39.42
			c-5.35-4.41-9.58-10.15-14.5-15.1c-1.69-1.7-2.28-3.42-2.74-5.75c-1.87-9.37-0.41-18.92-1.95-28.29
			c-2.39-14.57-7.23-28.5-10.78-42.77c-2.52-10.14-5.28-20.22-7.93-30.33c11.82,9.23,22.52,18.84,33.05,28.64
			c10.8,10.06,21.39,19.9,36.77,23.25c13.19,2.87,25.18,11.37,38.69,12.07c25.88,1.35,51.87,0.79,77.81,1.04
			c1.46,0.02,2.81-0.22,3.36-1.67C3140.61,709.64,3139.03,709.03,3138.02,708.27z M2895.6,571.9
			c15.72,22.48,30.58,43.73,46.04,65.86c-23.12,4.38-45.88,8.68-69.08,13.06C2880.3,624.33,2887.76,598.77,2895.6,571.9z
			 M2870.35,657.6c18.94,14.58,37.42,28.81,57.28,44.1c-24.11-0.18-46.45-1.9-69.72-1.19
			C2862.09,686.08,2866.08,672.32,2870.35,657.6z M2854.06,698.25c-14.19-10.06-29.59-17.5-44.69-27.21
			c19.1-4.83,37.31-9.43,56.89-14.37C2862.07,670.93,2858.17,684.23,2854.06,698.25z M2926.29,705.96
			c-1.34,6.19-2.75,12.15-3.87,18.15c-0.48,2.52-1.93,2.97-4.1,3.51c-8.62,2.09-17.35,3.97-25.69,6.93
			c-4.24,1.51-6.01,0.03-8.35-2.7c-7.71-9-15.59-17.85-23.81-27.21C2882.65,703.78,2904.21,705.53,2926.29,705.96z M2930.1,708.87
			c0.37-1.59,0.33-4.08,3.1-2.87c8.81,3.86,17.56,7.86,27.59,12.37c-12.46,2.75-23.17,5.11-34.54,7.61
			C2927.59,719.97,2928.81,714.42,2930.1,708.87z M2928.43,696.98c-18.33-14.12-35.96-27.71-54.61-42.07
			c22.38-4.3,43.46-8.36,64.55-12.42c4.48-0.86,2.84,1.91,2.35,3.96C2936.68,663.03,2932.65,679.6,2928.43,696.98z M2890.55,574.41
			c-7.37,24.6-14.38,49.31-21.71,74.63c-26.97-22.34-53.2-44.07-80.07-66.34c13.61-1.9,26.39-3.81,39.21-5.42
			c19.55-2.47,39.16-4.53,58.67-7.23C2891.43,569.38,2891.95,569.71,2890.55,574.41z M2863.65,650.21
			c-21.16-3.77-41.01-7.29-60.86-10.83c-1.86-0.34-3.12-0.95-3.68-3.2c-4.07-16.35-8.32-32.65-12.81-50.12
			C2812.4,607.71,2837.55,628.56,2863.65,650.21z M2887.88,565.63c-21.13,2.6-41.02,4.97-60.89,7.52
			c-12.22,1.56-24.41,3.34-36.59,5.11c-3.6,0.53-5.85,0.9-6.39-4.36c-2.6-25.4-5.82-50.74-8.96-77.3
			C2812.84,519.7,2849.89,542.38,2887.88,565.63z M2768.6,497.07c4.09-0.31,2.88,3.78,3.2,5.82c1.13,7.07,1.65,14.24,2.44,21.37
			c1.64,14.69,3.3,29.38,4.96,44.08c-0.35,0.11-0.7,0.22-1.06,0.34c-14.73-22.48-29.46-44.96-44.71-68.23
			C2745.69,499.23,2757.13,497.94,2768.6,497.07z M2649.69,524.79c-5.93-10.73-11.78-21.49-17.7-32.3
			c29.26,5.5,59.11,4.07,89.41,8.08c-18.82,9.93-37.03,19.53-55.23,29.15C2655.56,535.33,2655.53,535.36,2649.69,524.79z
			 M2650.74,536.22c-18.08-5.93-34.88-11.44-52.53-17.22c9.39-8.01,17.97-15.25,26.43-22.64c2.09-1.83,3.44-2.49,5.01,0.5
			C2636.38,509.55,2643.21,522.19,2650.74,536.22z M2724.41,503.8c-7.97,16.68-15.31,31.85-22.42,47.13
			c-1.05,2.24-1.51,3.07-4.21,2.06c-12.67-4.74-25.45-9.18-39.38-14.16C2680.67,527.01,2701.82,515.79,2724.41,503.8z
			 M2701.82,561.35c0.77-1.9,2.14-1.97,3.85-1.47c22.21,6.6,44.42,13.18,67.98,20.17c-29.4,5.41-57.35,10.56-85.91,15.81
			C2692.52,584.14,2697.17,572.75,2701.82,561.35z M2707.97,556.16c-1.99-0.59-3.42-1-2.07-3.81c7.94-16.34,15.68-32.78,23.8-49.86
			c16.34,24.93,32.37,49.38,48.99,74.73C2754.54,570.03,2731.25,563.09,2707.97,556.16z M2702.24,474.25
			c20.53,5.81,41.05,11.62,61.58,17.43c-0.08,0.35-0.18,0.69-0.27,1.04c-7.23,1.05-14.45,2.15-21.69,3.11
			c-6.3,0.83-11.83,0.22-17.2-4.52c-6.96-6.14-15.09-10.97-22.72-16.35C2702.03,474.73,2702.13,474.48,2702.24,474.25z
			 M2694.44,474.87c9.52,6.69,19.06,13.35,28.52,20.68c-28.85-2.25-57.82-2.44-86.61-7.29c17.16-4.73,34.36-9.29,51.41-14.35
			C2690.6,473.06,2692.35,473.41,2694.44,474.87z M2678.12,472.15c-16.25,4.77-32.5,9.56-48.77,14.25c-1.23,0.36-2.81,0.4-3.97-0.05
			c-10.86-4.12-21.67-8.39-32.39-13.07C2621.41,473.32,2649.73,472.58,2678.12,472.15z M2580.82,471.93
			c1.92,0.43,2.81,1.74,3.18,3.8c2.26,12.23,4.68,24.43,7.42,38.57c-13.75-16.87-26.29-32.27-39.73-48.75
			C2562.31,467.87,2571.58,469.85,2580.82,471.93z M2543.32,501.94c1.35-11.31,2.76-22.59,4.25-34.69
			c13.44,16.46,26.4,32.34,40.56,49.69c-11.56-2.44-21.26-4.48-30.97-6.56c-3.04-0.65-6.08-2.2-9.05-2.06
			C2542.73,508.58,2542.9,505.47,2543.32,501.94z M2542.03,513.98c0.71-4.12,4.02-1.78,5.81-1.41c12.41,2.54,24.75,5.43,38.37,8.49
			c-16.94,9.45-33.13,18.5-49.74,27.77C2538.35,536.87,2540.06,525.41,2542.03,513.98z M2536.94,485.44
			c3.2,0.38,4.09,1.96,3.66,4.96c-0.69,4.87-1.18,9.77-1.84,15.36c-15.86-8.7-31.11-17.06-47.56-26.07
			C2507.38,481.74,2522.16,483.65,2536.94,485.44z M2512.91,517.09c-6.12-1.13-8.76-11.43-13.3-17.45
			c-3.74-4.97-7.22-10.15-12.03-16.94c16.52,9,31.37,17.08,47.18,25.7C2526.83,511.86,2519.17,518.25,2512.91,517.09z
			 M2514.69,524.15c0.33-2.35,1.76-2.96,3.27-3.65c6.4-2.89,12.85-5.64,20.25-8.86c-2.16,13.22-4.2,25.66-6.34,38.73
			c-1.81-0.74-3.04-1.18-4.22-1.73C2517.36,543.82,2513.1,535.49,2514.69,524.15z M2529.13,555.24c-0.69,6.55-4.41,12.51-8.21,19.19
			c-1.23-9.17-2.31-17.22-3.39-25.24c0.73-0.22,1.26-0.56,1.51-0.41C2522.62,550.91,2529.32,553.44,2529.13,555.24z M2530.1,565.05
			c0.31,0.01,0.61,0.03,0.92,0.05c-0.89,10.46-1.85,20.92-2.61,31.38c-0.18,2.43-2.22,2.68-3.52,3.53c-3.87,2.53-8,4.68-13.29,7.7
			C2518.09,592.73,2524.09,578.89,2530.1,565.05z M2510.88,613.28c5.91-3.56,11.38-6.87,17.25-10.42
			c1.93,5.11,3.77,10.03,5.97,15.86C2525.81,616.78,2518.69,615.11,2510.88,613.28z M2547.47,608.71c-3.26,2.24-6.17,5.01-9.25,7.56
			c-10.47-16.56-3.15-33.93-2.19-50.7c4.58,11.22,9.01,22.52,13.84,33.64C2551.67,603.34,2551.26,606.11,2547.47,608.71z
			 M2555.59,602.65c-6.33-15.61-12.61-31.09-19.29-47.55c19.4,6.79,37.66,13.17,56.7,19.82
			C2580.51,584.95,2568.45,593.81,2555.59,602.65z M2539.74,551.91c17.84-9.94,34.69-19.33,52.3-29.13
			c1.16,16.35,2.27,32.11,3.44,48.49C2576.82,564.79,2558.74,558.51,2539.74,551.91z M2588.88,476.67
			c12.39,4.83,23.9,9.3,35.97,14.01c-9.92,8.43-19.36,16.43-29.22,24.81C2593.3,502.09,2591.15,489.7,2588.88,476.67z
			 M2599.6,570.54c-0.75-10.05-1.56-19.58-2.11-29.11c-0.25-4.49-0.19-8.95-1.07-13.41c-0.64-3.22-1.51-6.13,4.4-3.95
			c15.68,5.82,31.73,10.65,48.17,16.05C2632.55,550.24,2616.36,560.21,2599.6,570.54z M2601.29,574.43
			c16.88-10.38,32.86-20.2,49.87-30.65c-4.1,17.3-7.92,33.41-11.81,49.77C2626.66,587.19,2614.46,581.06,2601.29,574.43z
			 M2632.58,675.75c-0.49,6.6-1.85,13.12-2.32,19.94c-4.9-17.64-9.81-35.26-14.72-52.89c0.19-0.1,0.36-0.21,0.54-0.31
			c5.37,8.86,10.88,17.65,15.98,26.66C2633.06,670.9,2632.74,673.55,2632.58,675.75z M2613.56,630.22c7.2-1,13.71,1.77,20.39,1.13
			c2.65-0.25,2.74,1.28,2.52,3.42c-0.98,9.03-1.81,18.08-2.81,28.3C2626.63,651.58,2620.19,641.06,2613.56,630.22z M2646.07,694.45
			c-3.79,2.93-7.62,5.79-11.9,9.02c0.93-9.05,1.78-17.22,2.77-26.81c3.65,5.66,6.64,10.45,9.82,15.13
			C2647.71,693.21,2646.88,693.83,2646.07,694.45z M2647.62,683.55c-11.26-10.18-10.99-22.23-7.51-34.96
			C2642.61,660.19,2645.08,671.74,2647.62,683.55z M2641.14,625.5c-4.75,3.3-9.93,1.53-14.94,1.32c-3.1-0.13-6.18-0.83-9.25-1.27
			c8.23-8.48,16.59-17.06,24.87-25.71c1.36-1.41,2.88-1.04,4.37-0.88c9.27,0.99,18.53,2.07,28.79,3.24
			C2663.19,610.3,2652.14,617.88,2641.14,625.5z M2643.5,594.53c3.87-16.61,7.7-32.95,11.79-50.51c8.9,18.22,17.48,35.78,26.3,53.83
			C2668.54,597.42,2656.28,596.14,2643.5,594.53z M2659.99,543.89c9.97,3.63,18.54,6.75,27.12,9.87
			c11.66,4.25,11.65,4.25,6.99,15.59c-1.61,3.89-3.16,7.81-4.75,11.71c-1.51,3.68-3.03,7.37-5.1,12.38
			C2676.11,576.81,2668.42,561.12,2659.99,543.89z M2684.22,627.61c1.86-6.99,0.49-14.33,3.05-21.62
			c9.02,6.67,18.18,13.43,28.32,20.91c-9.22,1.95-17.65,3.68-26.05,5.55C2685.32,633.38,2682.98,632.28,2684.22,627.61z
			 M2694.66,652.35c12.51,12.06,23.82,23.71,33.81,36.59C2714.58,686.69,2704.98,676.47,2694.66,652.35z M2719.37,667.82
			c0.79,0.36,1.42,1.08,2.19,1.54c6.77,3.99,13.88,7.74,11.41,17.86c-14.04-17.47-30.52-33.01-47.32-49.86
			c9.49-1.89,17.96-2.9,25.96-5.4c6.7-2.09,6.93,0.63,6.27,5.69c-0.97,7.34-1.66,14.71-2.69,22.04
			C2714.64,663.54,2715.77,666.21,2719.37,667.82z M2719.21,624.23c-10.38-7.42-20.58-15.07-31.76-23.3
			c14.48-4.02,28.22-5.66,41.72-8.56c4.1-0.88,5.83-0.37,4.53,4.55c-2.05,7.74-3.32,15.7-5.08,23.53
			C2727.51,625.43,2723.35,627.19,2719.21,624.23z M2739.9,622.07c-1.91,1.27-2.48,5.45-6.29,2.94c-3.47-2.28-0.51-4.9-0.2-6.98
			c1.18-7.47,3.56-14.76,4.6-22.24c0.5-3.53,1.43-5.14,4.86-5.75c11.37-2.01,22.71-4.19,34.07-6.3c0.25,0.36,0.5,0.73,0.75,1.09
			c-11.31,11.15-22.64,22.29-33.95,33.45C2742.46,619.54,2741.37,621.09,2739.9,622.07z M2782.18,586.88
			c4.47,17.14,8.8,33.76,13.25,50.85c-17.84-3.72-35.47-7.4-53.94-11.25C2754.44,612.3,2768.25,599.95,2782.18,586.88z
			 M2745.77,632.5c0.1-0.27,0.22-0.54,0.32-0.81c14.76,3.08,29.5,6.2,44.27,9.21c4.01,0.82,6.59,2.6,7.37,7.01
			c1.08,6.07,2.7,12.05,4.14,18.23C2782.99,654.83,2764.37,643.67,2745.77,632.5z M2805.28,662.66c-1.09-6.3-2.93-12.47-4.65-19.53
			c19.23,3.52,38.12,6.97,58.95,10.77c-8.02,2.1-14.33,3.81-20.67,5.41c-9.24,2.36-18.5,4.61-27.73,6.98
			C2807.87,667.15,2805.99,666.69,2805.28,662.66z M2815.57,706.55c-2.61-10.26-5.21-20.53-7.98-31.44
			c14.94,8.77,29.5,17.31,45.47,26.69c-12.01,3.02-22.15,5.21-32.05,8.24C2816.85,711.32,2816.29,709.39,2815.57,706.55z
			 M2821.85,714.39c10.41-2.93,20.06-5.53,29.62-8.39c3.55-1.07,4.21,1.19,5.17,3.53c4.18,10.27,8.41,20.52,13.13,32.01
			C2853.45,732.3,2837.99,723.54,2821.85,714.39z M2862.61,713.44c7.39,8.27,13.61,15.2,19.78,22.18c1.22,1.37,0.65,2.2-1.03,2.87
			c-2.26,0.9-4.38,2.17-6.89,3.45C2870.65,732.75,2866.99,723.96,2862.61,713.44z M2875.9,745.87c10.7-4.56,10.65-4.53,17.39,4.26
			c3.47,4.53,7.15,8.9,10.13,14.1C2894.46,758.26,2885.52,752.28,2875.9,745.87z M2893.22,743.03c-1.92-2.45-2.42-3.88,1.51-4.78
			c8.15-1.86,16.19-4.2,25.15-6.58c-3.65,10.88-7.03,21.01-10.7,31.94C2903.5,756.26,2898.4,749.61,2893.22,743.03z M2912.19,768.48
			c3.59-10.71,7.07-21.45,10.81-32.89c6.41,21.24,10.2,42,19.38,63.25c-10.81-9.64-20.11-18.03-29.54-26.29
			C2911.27,771.18,2911.65,770.09,2912.19,768.48z M2957.31,845.61c-7.65-5.41-14.91-10.55-22.17-15.68
			c0.12-0.33,0.23-0.65,0.36-0.98c4.04,0.95,8.06,1.94,12.11,2.84C2958.05,834.15,2958.05,834.14,2957.31,845.61z M2956.7,829.95
			c-7.22-1.89-13.35-3.5-20.25-5.3c3.81-4.74,7.23-9.01,10.8-13.47C2950.35,817.32,2953.19,822.95,2956.7,829.95z M2943.21,805.63
			c1.73,1.56,0.59,2.69-0.41,3.97c-3.57,4.55-7.1,9.14-11.21,14.45c-5.68-14.6-10.95-28.15-16.22-41.71
			c0.36-0.33,0.72-0.65,1.08-0.98C2925.36,789.45,2934.28,797.55,2943.21,805.63z M3023.82,869.6c0.67,2.87-0.89,4.53-2.71,6.32
			c-2.38,2.36-4.54,4.96-7.4,8.13c-3.44-6.48-6.31-12.12-9.43-17.63c-1.2-2.12-0.43-3.15,1.2-4.41c4.58-3.56,9.06-7.26,14.16-11.35
			C3021.12,857.46,3022.4,863.55,3023.82,869.6z M3001.64,859.66c-5.81-14.36-11.44-28.28-17.77-43.9
			c11.86,11.18,22.37,21.1,33.28,31.4C3011.81,851.47,3006.77,855.52,3001.64,859.66z M3016.98,840.24
			c-0.73,0.65-1.46,1.29-2.19,1.94c-10.25-11.01-20.43-22.08-30.8-32.95c-2.27-2.38-2.52-3.5,0.53-5.35
			c5.7-3.46,11.14-7.36,17.19-11.42C3006.87,808.62,3011.92,824.43,3016.98,840.24z M2997.34,785.68c0.95,0.96,3.81,2.01,0.81,3.99
			c-6.4,4.24-12.79,8.49-19.49,12.93c-2.32-14.52-4.48-28.11-6.75-42.3C2980.73,769.06,2989.09,777.32,2997.34,785.68z
			 M2967.1,755.81c2.31,15.24,4.77,30.46,7.37,46.92c-11.49-6.99-21.68-13.39-32.1-19.38c-2.4-1.38-2.89-3.47-3.43-5.4
			c-4.14-14.71-8.04-29.49-12.21-44.99c11.71,8.92,24.39,14.74,37.31,20.03C2965.54,753.6,2966.79,753.75,2967.1,755.81z
			 M2965.61,726.18c-0.09,7.57-0.03,15.16-0.03,22.84c-12.17-4.75-24.47-10.42-35.95-19.31c10.91-2.5,21.02-4.65,31.04-7.18
			C2964.32,721.62,2965.66,722.46,2965.61,726.18z M2963.6,714.74c-10.77-4.7-20.59-8.93-30.36-13.27
			c-2.17-0.97-0.69-2.49-0.35-3.96c3.48-14.71,6.74-29.46,10.34-44.14c0.53-2.2,0.65-4.39,2.23-6.88
			C2951.41,668.85,2957.35,691.2,2963.6,714.74z M3117.82,699.85c-0.25,0.3-0.5,0.6-0.75,0.9c-26.94-11.29-53.87-22.58-80.82-33.85
			c-3.32-1.39-5.07-4.21-6.84-7.06c-6.1-9.81-12.21-19.61-19.13-30.72C3046.87,653.18,3082.34,676.51,3117.82,699.85z
			 M2986.35,628.63c15.75-4.52,15.74-4.53,24.31,9.15c4.97,7.91,9.93,15.82,14.88,23.74c0.07,0.11-0.06,0.35-0.22,1.25
			c-23.97-8.03-47.85-16.04-72.89-24.43C2964.33,634.94,2975.34,631.78,2986.35,628.63z M3001.52,687.06
			c-13.37-12.04-26.7-24.15-40.05-36.23c-2.49-2.23-5.04-4.39-7.56-6.58c0.1-0.25,0.21-0.5,0.32-0.76
			c24.33,8.03,48.66,16.06,73.41,24.23c-6.92,6.6-14.25,13.46-21.39,20.5C3003.71,690.72,3002.8,688.22,3001.52,687.06z
			 M3010.26,691.91c5.96-6.26,12.29-12.88,18.58-19.54c2.36-2.51,2.91-0.09,3.72,1.32c6.11,10.53,12.17,21.08,18.7,32.42
			C3036.78,701.08,3023.19,696.39,3010.26,691.91z M3060.27,707.87c-3.11,0.02-4.21-1.94-5.46-4.12
			c-5.96-10.4-11.97-20.76-18.61-32.25c30.31,13.26,59.64,24.98,88.71,36.33C3103.55,707.83,3081.91,707.78,3060.27,707.87z"/>
	</g>
</g>
<g>
	<polygon points="892.2,664.28 889.42,682.37 920.03,682.37 920.03,664.28 	"/>
	<g>
		<polygon points="55.22,722.03 95.57,623.23 119.93,623.23 160.28,722.73 138.01,722.73 107.4,647.58 78.18,722.73 		"/>
		<g>
			<path class="st1" d="M179.76,707.42c3.71-4.64,7.42-9.28,11.13-13.91c2.65,2.76,7.15,6.83,13.74,9.98
				c4.08,1.95,7.39,3.43,11.87,3.43c10.72,0,17.62-4.6,17.62-12.45c0-6.89-4.79-10.34-14.74-12.83l-11.68-3.06
				c-16.85-4.6-26.23-13.02-26.23-27c0-5.21,1.25-9.85,3.58-13.81c8.34-14.15,29.38-14.71,32.04-14.72
				c14.9-0.1,25.57,7.51,29.47,10.62c-2.78,5.1-5.57,10.2-8.35,15.31c-1.95-2.13-9.88-10.28-21.12-10.04
				c-1.12,0.02-11.22,0.48-14.52,6.08c-0.89,1.52-1.38,3.32-1.38,5.41c0,6.51,4.59,9.76,14.93,12.44l11.87,3.06
				c17.42,4.6,26.04,13.79,26.04,27.38c0,0.27-0.02,6.95-3.3,13.42c-5.87,11.57-20.3,18.56-33.4,18.77
				c-13.18,0.21-23.05-6.5-27.83-9.74C185.12,712.8,181.9,709.72,179.76,707.42z"/>
		</g>
		<rect x="282.73" y="625.32" width="22.26" height="98.8"/>
		<path d="M318.91,685.16c2.78-18.09,2.78-18.09,2.78-18.09h23.66v-41.74h22.26v98.8h-22.26v-38.96H318.91z"/>
		<polygon points="430.23,623.93 466.41,722.73 488.67,722.73 452.49,623.93 		"/>
		<path d="M503.98,623.93l-19.48,58.44c-0.48,2.27-0.88,5.74,0,9.74c2.04,9.26,9.32,14.16,11.13,15.31
			c9.74-27.83,19.48-55.66,29.22-83.49H503.98z"/>
		<path d="M570.77,623.93H548.5l1.39,69.57c0.86,3.65,3.87,14.31,13.91,22.26c10.76,8.53,22.59,8.4,27.83,8.35
			c5.51-0.06,19.61-0.21,30.61-11.13c8.94-8.88,10.69-19.77,11.13-23.66c0-21.8,0-43.6,0-65.4h-22.26
			c0.46,19.02,0.93,38.03,1.39,57.05c1.29,12.7-8.83,23.66-20.87,23.66c-12.04,0-22.16-10.95-20.87-23.66
			C570.77,661.96,570.77,642.95,570.77,623.93z"/>
		<path d="M661.22,623.93h22.26v66.79c-0.54,2.01-2.69,9.09-9.74,13.91c-5.1,3.49-10.21,4.06-12.52,4.17c0-27.83,0-55.66,0-83.49"/>
		<path class="st0" d="M689.05,701.85h36.18v20.87h-52.88c3.54-1.99,9.77-6.22,13.91-13.91
			C687.6,706.33,688.47,703.95,689.05,701.85z"/>
		<g>
			<path class="st2" d="M786.85,623c10.79,0,19.29,2.97,25.63,9.04c6.34,6.07,9.44,14.16,9.44,24.55c0,10.25-3.24,18.48-9.58,24.55
				c-6.34,6.07-14.83,9.17-25.62,9.17h-17.8v30.48h-15.24V623H786.85z M786.85,677.35c12.41,0,19.56-7.69,19.56-20.77
				c0-13.08-7.15-20.77-19.42-20.77h-18.07v41.54H786.85z"/>
		</g>
		<path d="M925.6,642.02v-18.09h-72.36v98.8h72.36v-18.09c-16.7,0-33.4,0-50.09,0c0-20.87,0-41.74,0-62.62
			C892.2,642.02,908.9,642.02,925.6,642.02z"/>
		<g>
			<path class="st1" d="M950.5,708.91c3.71-4.64,7.42-9.28,11.13-13.91c2.65,2.77,7.15,6.83,13.74,9.98
				c4.08,1.95,7.39,3.43,11.87,3.43c10.72,0,17.62-4.6,17.62-12.45c0-6.89-4.79-10.34-14.74-12.83l-11.68-3.06
				c-16.85-4.6-26.23-13.02-26.23-27c0-5.21,1.25-9.85,3.58-13.81c8.34-14.15,29.38-14.71,32.04-14.72
				c14.9-0.1,25.57,7.51,29.47,10.62c-2.78,5.1-5.57,10.2-8.35,15.31c-1.95-2.13-9.88-10.28-21.12-10.04
				c-1.12,0.02-11.22,0.48-14.52,6.08c-0.89,1.52-1.38,3.32-1.38,5.41c0,6.51,4.59,9.76,14.93,12.44l11.87,3.06
				c17.42,4.6,26.04,13.79,26.04,27.38c0,0.27-0.02,6.95-3.3,13.42c-5.87,11.57-20.3,18.56-33.4,18.77
				c-13.18,0.21-23.05-6.5-27.83-9.74C955.86,714.29,952.65,711.21,950.5,708.91z"/>
		</g>
	</g>
</g>
<g>
	<g>
		<path class="st0" d="M1879.21,617.09c-0.79-0.6-1.63-1.12-2.46-1.66c-26.81-17.75-53.64-35.48-80.41-53.28
			c-1.54-1.03-2.63-1.38-4.56-0.79c-9.93,3.08-20,5.73-29.92,8.82c-3.42,1.07-5.3,0.33-7.31-2.65
			c-8.51-12.57-17.31-24.95-25.96-37.42c-1.32-1.91-2.9-3.38-4.91-4.6c-18.83-11.52-37.51-23.28-56.43-34.64
			c-7.48-4.49-14.37-10.18-22.84-12.84c-10.07-3.16-20.27-5.9-30.37-8.96c-10.51-3.18-21.11-5.25-32.19-4.38
			c-16.24,1.27-32.53,0.8-48.8,0.89c-2.12,0.01-4.19-0.06-6.33-0.6c-6.83-1.74-13.78-3.02-20.6-4.77c-2.29-0.59-3.13-0.26-3.28,2.1
			c-0.18,3.12-0.66,6.22-0.8,9.34c-0.1,2.13-0.7,2.38-2.87,2.04c-11.2-1.73-22.44-3.23-33.7-4.6c-1.16-0.14-2.88-1.5-3.79,0.33
			c-0.72,1.42,0.78,2.27,1.47,3.27c5.73,8.28,11.47,16.55,17.24,24.8c1.24,1.78,1.77,3.63,2.02,5.86c1.05,9.44,2.38,18.86,3.8,28.26
			c0.48,3.17,0.59,6.09-0.81,9.11c-2.25,4.85-4.26,9.81-6.3,14.76c-0.81,1.96-0.8,3.27,2.02,3.79c5.12,0.95,10.14,2.42,15.17,3.78
			c1.59,0.43,2.83,0.01,3.94-0.99c10.96-10,24.01-17.23,35.34-26.73c1.17-0.98,1.88-1.11,3.25-0.4c7.79,4.05,15.65,7.95,23.58,11.95
			c-5.72,5.78-11.15,11.4-16.75,16.84c-1.51,1.47-2.17,2.89-1.64,4.86c4.31,16.2,8.6,32.4,12.95,48.59
			c0.43,1.62,1.18,2.51,2.98,0.93c2.78-2.44,5.55-5.02,8.74-6.8c4.19-2.34,4.03-5.4,3.08-9.31c-2.46-10.16-4.69-20.38-6.94-30.59
			c-0.28-1.27-0.98-2.79,0.59-3.87c8.38-5.75,16.76-11.5,25.66-17.62c-0.61,6.93-1.11,13.12-1.72,19.3c-0.18,1.8,0.33,3.29,1.2,4.8
			c4.64,8.1,9.31,16.18,13.79,24.37c1.22,2.24,2.82,3.83,5.02,4.92c4.3,2.12,8.64,4.14,12.9,6.33c2.73,1.4,4.16,1.36,4.05-2.35
			c-0.21-7.1-0.69-13.88-8.77-16.89c-3.27-1.21-3.62-3.89-3.11-7c0.65-3.92,1.18-7.87,1.53-11.83c0.43-4.96,2.89-6.43,7.21-3.87
			c13.85,8.23,27.63,16.55,41.48,24.78c1.56,0.93,2.39,1.96,2.85,3.86c1.77,7.4,4.01,14.69,5.76,22.1c0.45,1.91,1.24,2.96,2.83,3.84
			c18.31,10.12,36.38,20.66,53.58,32.65c2.11,1.47,3.54,3.04,4.43,5.37c3.75,9.85,7.54,19.68,11.4,29.49
			c0.82,2.09,1.41,4.52,3.24,5.91c4.98,3.77,10.14,7.28,15.21,10.94c1.23,0.89,2.96,1.18,3.1-0.31c0.38-4.1,2.79-8.12,0.44-12.42
			c-4.49-8.21-8.46-16.68-11.88-26.14c6.38,3.89,12.12,7.55,18.02,10.91c2.66,1.51,4.12,3.53,5.3,6.3
			c5.5,12.95,9.75,26.42,16.2,38.97c4.17,8.11,4.17,7.92,11.31,2.05c2.95-2.42,3.26-4.67,2.73-8.38
			c-1.77-12.55-6.5-24.22-9.78-36.31c-2.65-9.78-6.95-18.34-14.94-24.95c-3.38-2.79-6.07-6.42-9.18-9.56
			c-1.07-1.08-1.44-2.17-1.73-3.64c-1.18-5.93-0.26-11.97-1.23-17.9c-1.51-9.22-4.57-18.04-6.82-27.07
			c-1.6-6.41-3.34-12.79-5.02-19.19c7.48,5.84,14.25,11.92,20.91,18.13c6.83,6.37,13.54,12.59,23.27,14.71
			c8.35,1.82,15.94,7.2,24.49,7.64c16.38,0.85,32.82,0.5,49.24,0.66c0.92,0.01,1.78-0.14,2.12-1.06
			C1880.85,617.96,1879.85,617.58,1879.21,617.09z M1725.8,530.8c9.95,14.23,19.35,27.68,29.14,41.68
			c-14.63,2.77-29.03,5.49-43.71,8.27C1716.12,563.98,1720.84,547.8,1725.8,530.8z M1709.82,585.03
			c11.98,9.23,23.68,18.23,36.25,27.91c-15.26-0.11-29.39-1.2-44.12-0.75C1704.6,603.06,1707.12,594.35,1709.82,585.03z
			 M1699.51,610.76c-8.98-6.37-18.72-11.08-28.28-17.22c12.09-3.05,23.61-5.96,36-9.1C1704.59,593.47,1702.12,601.89,1699.51,610.76
			z M1745.23,615.64c-0.85,3.92-1.74,7.69-2.45,11.49c-0.3,1.6-1.22,1.88-2.6,2.22c-5.46,1.32-10.98,2.51-16.26,4.38
			c-2.68,0.95-3.8,0.02-5.28-1.71c-4.88-5.69-9.86-11.3-15.07-17.22C1717.61,614.25,1731.25,615.37,1745.23,615.64z M1747.64,617.48
			c0.24-1.01,0.21-2.58,1.96-1.82c5.57,2.44,11.11,4.98,17.46,7.83c-7.88,1.74-14.66,3.23-21.86,4.82
			C1746.05,624.5,1746.82,620.99,1747.64,617.48z M1746.58,609.95c-11.6-8.94-22.76-17.53-34.56-26.62
			c14.16-2.72,27.5-5.29,40.85-7.86c2.83-0.54,1.8,1.21,1.49,2.51C1751.8,588.47,1749.25,598.96,1746.58,609.95z M1722.6,532.39
			c-4.66,15.57-9.1,31.2-13.74,47.23c-17.07-14.14-33.66-27.89-50.67-41.98c8.61-1.2,16.7-2.41,24.81-3.43
			c12.37-1.56,24.78-2.86,37.13-4.57C1723.16,529.2,1723.49,529.42,1722.6,532.39z M1705.59,580.35
			c-13.39-2.38-25.95-4.62-38.52-6.85c-1.18-0.21-1.98-0.6-2.33-2.02c-2.57-10.35-5.27-20.66-8.11-31.72
			C1673.15,553.46,1689.06,566.65,1705.59,580.35z M1720.92,526.83c-13.37,1.65-25.96,3.15-38.53,4.76
			c-7.73,0.99-15.44,2.11-23.16,3.23c-2.28,0.34-3.7,0.57-4.04-2.76c-1.65-16.07-3.68-32.11-5.67-48.92
			C1673.43,497.77,1696.88,512.12,1720.92,526.83z M1645.43,483.44c2.59-0.2,1.82,2.39,2.02,3.68c0.72,4.47,1.04,9.01,1.54,13.52
			c1.04,9.3,2.09,18.59,3.14,27.89c-0.22,0.07-0.44,0.14-0.67,0.21c-9.32-14.23-18.64-28.45-28.29-43.18
			C1630.94,484.81,1638.17,484,1645.43,483.44z M1570.19,500.99c-3.75-6.79-7.46-13.6-11.2-20.44c18.52,3.48,37.4,2.57,56.58,5.11
			c-11.91,6.28-23.43,12.36-34.95,18.44C1573.9,507.66,1573.88,507.67,1570.19,500.99z M1570.85,508.22
			c-11.44-3.75-22.07-7.24-33.24-10.9c5.94-5.07,11.37-9.65,16.72-14.33c1.33-1.16,2.18-1.57,3.17,0.31
			C1561.76,491.34,1566.09,499.34,1570.85,508.22z M1617.47,487.7c-5.04,10.56-9.69,20.15-14.19,29.82
			c-0.66,1.42-0.95,1.94-2.66,1.3c-8.02-3-16.11-5.81-24.92-8.96C1589.79,502.39,1603.17,495.29,1617.47,487.7z M1603.17,524.13
			c0.49-1.2,1.35-1.25,2.44-0.93c14.05,4.18,28.11,8.34,43.02,12.76c-18.6,3.43-36.29,6.68-54.36,10.01
			C1597.29,538.55,1600.23,531.34,1603.17,524.13z M1607.07,520.84c-1.26-0.37-2.17-0.63-1.31-2.41
			c5.02-10.34,9.92-20.75,15.06-31.55c10.34,15.78,20.49,31.25,31,47.29C1636.53,529.62,1621.8,525.23,1607.07,520.84z M1603.44,469
			c12.99,3.67,25.98,7.36,38.97,11.03c-0.05,0.22-0.11,0.44-0.17,0.66c-4.57,0.66-9.14,1.36-13.73,1.97
			c-3.99,0.53-7.49,0.14-10.88-2.86c-4.4-3.89-9.55-6.94-14.38-10.35C1603.31,469.31,1603.37,469.15,1603.44,469z M1598.5,469.39
			c6.02,4.23,12.06,8.45,18.05,13.09c-18.26-1.43-36.59-1.54-54.81-4.62c10.86-2.99,21.74-5.88,32.53-9.08
			C1596.07,468.25,1597.18,468.47,1598.5,469.39z M1588.18,467.67c-10.28,3.02-20.57,6.05-30.87,9.02
			c-0.78,0.22-1.78,0.25-2.51-0.03c-6.87-2.61-13.71-5.31-20.5-8.27C1552.29,468.42,1570.21,467.94,1588.18,467.67z M1526.6,467.54
			c1.21,0.27,1.78,1.1,2.01,2.4c1.43,7.74,2.96,15.46,4.69,24.41c-8.7-10.68-16.64-20.42-25.14-30.85
			C1514.89,464.97,1520.75,466.22,1526.6,467.54z M1502.87,486.53c0.85-7.15,1.75-14.3,2.69-21.95
			c8.5,10.41,16.71,20.47,25.67,31.45c-7.31-1.54-13.46-2.83-19.6-4.15c-1.92-0.41-3.85-1.39-5.73-1.3
			C1502.5,490.73,1502.6,488.76,1502.87,486.53z M1502.05,494.15c0.45-2.61,2.54-1.12,3.67-0.89c7.85,1.61,15.66,3.44,24.28,5.37
			c-10.72,5.98-20.97,11.7-31.48,17.57C1499.73,508.63,1500.81,501.38,1502.05,494.15z M1498.84,476.09
			c2.02,0.24,2.59,1.24,2.31,3.14c-0.44,3.08-0.75,6.18-1.17,9.72c-10.04-5.5-19.69-10.79-30.1-16.5
			C1480.13,473.74,1489.48,474.95,1498.84,476.09z M1483.63,496.11c-3.88-0.72-5.54-7.23-8.41-11.04
			c-2.37-3.15-4.57-6.42-7.61-10.72c10.46,5.69,19.85,10.81,29.86,16.26C1492.44,492.8,1487.59,496.85,1483.63,496.11z
			 M1484.75,500.58c0.21-1.49,1.11-1.88,2.07-2.31c4.05-1.83,8.13-3.57,12.82-5.61c-1.37,8.37-2.66,16.24-4.01,24.51
			c-1.15-0.47-1.92-0.75-2.67-1.09C1486.44,513.03,1483.75,507.76,1484.75,500.58z M1493.89,520.25c-0.44,4.15-2.79,7.92-5.2,12.14
			c-0.78-5.81-1.46-10.9-2.14-15.97c0.46-0.14,0.8-0.36,0.95-0.26C1489.77,517.52,1494.01,519.12,1493.89,520.25z M1494.5,526.46
			c0.2,0.01,0.38,0.02,0.58,0.03c-0.56,6.62-1.17,13.24-1.65,19.86c-0.11,1.54-1.4,1.7-2.22,2.24c-2.45,1.6-5.07,2.96-8.41,4.87
			C1486.91,543.98,1490.7,535.22,1494.5,526.46z M1482.34,556.98c3.74-2.25,7.2-4.35,10.92-6.59c1.22,3.24,2.38,6.35,3.78,10.04
			C1491.79,559.2,1487.28,558.14,1482.34,556.98z M1505.5,554.09c-2.07,1.42-3.91,3.17-5.85,4.78c-6.63-10.48-1.99-21.47-1.38-32.08
			c2.9,7.1,5.7,14.25,8.76,21.29C1508.16,550.69,1507.89,552.45,1505.5,554.09z M1510.63,550.26c-4.01-9.88-7.98-19.68-12.21-30.09
			c12.28,4.3,23.83,8.33,35.88,12.55C1526.4,539.06,1518.78,544.66,1510.63,550.26z M1500.6,518.15
			c11.29-6.29,21.95-12.23,33.1-18.43c0.73,10.35,1.44,20.32,2.18,30.69C1524.07,526.3,1512.63,522.33,1500.6,518.15z
			 M1531.7,470.54c7.84,3.05,15.13,5.89,22.76,8.86c-6.28,5.33-12.25,10.4-18.49,15.7C1534.5,486.62,1533.14,478.78,1531.7,470.54z
			 M1538.49,529.94c-0.47-6.36-0.99-12.39-1.34-18.42c-0.16-2.84-0.12-5.66-0.67-8.49c-0.4-2.04-0.96-3.88,2.79-2.5
			c9.92,3.68,20.08,6.74,30.48,10.15C1559.34,517.1,1549.09,523.4,1538.49,529.94z M1539.55,532.4
			c10.68-6.57,20.79-12.78,31.56-19.4c-2.6,10.95-5.01,21.14-7.47,31.5C1555.61,540.47,1547.89,536.59,1539.55,532.4z
			 M1559.36,596.52c-0.31,4.18-1.17,8.3-1.47,12.62c-3.1-11.16-6.21-22.31-9.31-33.47c0.12-0.07,0.23-0.13,0.34-0.2
			c3.4,5.61,6.88,11.17,10.11,16.87C1559.66,593.45,1559.46,595.13,1559.36,596.52z M1547.32,567.71c4.56-0.63,8.68,1.12,12.9,0.72
			c1.67-0.16,1.73,0.81,1.59,2.17c-0.62,5.72-1.15,11.44-1.78,17.91C1555.59,581.22,1551.52,574.57,1547.32,567.71z M1567.89,608.35
			c-2.4,1.85-4.82,3.66-7.53,5.71c0.59-5.73,1.12-10.9,1.75-16.97c2.31,3.58,4.2,6.62,6.21,9.57
			C1568.93,607.57,1568.41,607.96,1567.89,608.35z M1568.87,601.45c-7.12-6.44-6.95-14.07-4.75-22.13
			C1565.7,586.67,1567.27,593.98,1568.87,601.45z M1564.77,564.72c-3.01,2.09-6.28,0.97-9.46,0.83c-1.96-0.08-3.91-0.53-5.85-0.8
			c5.21-5.37,10.5-10.79,15.74-16.27c0.86-0.89,1.82-0.66,2.76-0.56c5.86,0.63,11.73,1.31,18.22,2.05
			C1578.73,555.1,1571.74,559.9,1564.77,564.72z M1566.26,545.12c2.45-10.51,4.87-20.85,7.46-31.97
			c5.63,11.53,11.06,22.64,16.65,34.07C1582.11,546.95,1574.35,546.14,1566.26,545.12z M1576.7,513.07
			c6.31,2.3,11.73,4.27,17.16,6.25c7.38,2.69,7.37,2.69,4.43,9.86c-1.02,2.46-2,4.94-3.01,7.41c-0.95,2.33-1.92,4.66-3.22,7.83
			C1586.9,533.91,1582.04,523.98,1576.7,513.07z M1592.04,566.06c1.18-4.42,0.31-9.07,1.93-13.68c5.71,4.22,11.5,8.5,17.92,13.23
			c-5.83,1.24-11.17,2.33-16.49,3.51C1592.73,569.71,1591.25,569.01,1592.04,566.06z M1598.65,581.71
			c7.92,7.63,15.07,15.01,21.4,23.16C1611.25,603.44,1605.17,596.98,1598.65,581.71z M1614.28,591.5c0.5,0.23,0.9,0.69,1.38,0.98
			c4.28,2.53,8.78,4.9,7.22,11.3c-8.88-11.05-19.31-20.89-29.94-31.55c6.01-1.2,11.37-1.83,16.43-3.41c4.24-1.32,4.38,0.4,3.96,3.6
			c-0.62,4.65-1.05,9.31-1.7,13.95C1611.28,588.79,1612,590.48,1614.28,591.5z M1614.18,563.91c-6.57-4.69-13.02-9.54-20.1-14.75
			c9.16-2.54,17.86-3.58,26.4-5.41c2.59-0.56,3.69-0.24,2.86,2.88c-1.3,4.9-2.1,9.94-3.21,14.89
			C1619.43,564.67,1616.8,565.79,1614.18,563.91z M1627.27,562.55c-1.21,0.8-1.57,3.45-3.98,1.86c-2.2-1.44-0.33-3.1-0.12-4.41
			c0.75-4.73,2.25-9.34,2.91-14.07c0.31-2.23,0.91-3.25,3.08-3.64c7.2-1.27,14.37-2.65,21.56-3.99c0.16,0.23,0.32,0.46,0.47,0.69
			c-7.16,7.05-14.33,14.11-21.49,21.17C1628.89,560.95,1628.2,561.93,1627.27,562.55z M1654.03,540.28
			c2.83,10.85,5.57,21.36,8.39,32.18c-11.29-2.36-22.44-4.68-34.13-7.12C1636.48,556.36,1645.22,548.55,1654.03,540.28z
			 M1630.98,569.15c0.06-0.17,0.14-0.34,0.2-0.51c9.34,1.95,18.67,3.92,28.01,5.83c2.54,0.52,4.17,1.65,4.66,4.44
			c0.68,3.84,1.71,7.63,2.62,11.54C1654.54,583.28,1642.76,576.22,1630.98,569.15z M1668.65,588.23c-0.69-3.99-1.85-7.89-2.94-12.36
			c12.17,2.22,24.13,4.41,37.3,6.82c-5.08,1.33-9.07,2.41-13.08,3.43c-5.85,1.49-11.7,2.92-17.55,4.41
			C1670.29,591.08,1669.09,590.79,1668.65,588.23z M1675.16,616.01c-1.65-6.49-3.3-12.99-5.05-19.89
			c9.46,5.55,18.67,10.95,28.78,16.89c-7.6,1.91-14.02,3.3-20.28,5.21C1675.97,619.03,1675.61,617.8,1675.16,616.01z
			 M1679.13,620.97c6.59-1.85,12.69-3.5,18.75-5.31c2.25-0.67,2.66,0.75,3.27,2.24c2.65,6.5,5.32,12.98,8.31,20.26
			C1699.13,632.3,1689.35,626.76,1679.13,620.97z M1704.93,620.37c4.67,5.23,8.62,9.62,12.52,14.04c0.78,0.87,0.41,1.39-0.65,1.82
			c-1.43,0.57-2.77,1.37-4.36,2.18C1710.01,632.59,1707.7,627.02,1704.93,620.37z M1713.34,640.89c6.77-2.89,6.74-2.86,11.01,2.7
			c2.2,2.86,4.53,5.63,6.41,8.92C1725.08,648.73,1719.42,644.95,1713.34,640.89z M1724.3,639.1c-1.21-1.55-1.53-2.46,0.96-3.02
			c5.16-1.18,10.24-2.66,15.92-4.17c-2.31,6.89-4.45,13.3-6.77,20.21C1730.8,647.47,1727.57,643.26,1724.3,639.1z M1736.3,655.2
			c2.27-6.78,4.47-13.57,6.84-20.81c4.06,13.44,6.46,26.58,12.27,40.03c-6.84-6.1-12.73-11.41-18.69-16.63
			C1735.72,656.91,1735.96,656.22,1736.3,655.2z M1764.86,704.01c-4.84-3.43-9.44-6.67-14.03-9.92c0.08-0.21,0.15-0.41,0.22-0.62
			c2.56,0.6,5.1,1.22,7.66,1.8C1765.32,696.76,1765.32,696.75,1764.86,704.01z M1764.47,694.1c-4.57-1.2-8.45-2.21-12.82-3.36
			c2.41-3,4.57-5.7,6.83-8.52C1760.45,686.11,1762.25,689.67,1764.47,694.1z M1755.93,678.71c1.09,0.99,0.37,1.7-0.26,2.51
			c-2.26,2.88-4.49,5.78-7.1,9.14c-3.59-9.24-6.93-17.81-10.27-26.39c0.22-0.21,0.46-0.41,0.68-0.62
			C1744.64,668.47,1750.28,673.59,1755.93,678.71z M1806.94,719.19c0.43,1.82-0.56,2.86-1.72,4c-1.51,1.49-2.87,3.14-4.68,5.14
			c-2.18-4.1-3.99-7.67-5.96-11.15c-0.76-1.34-0.27-1.99,0.76-2.79c2.9-2.25,5.73-4.59,8.96-7.18
			C1805.24,711.51,1806.05,715.36,1806.94,719.19z M1792.91,712.9c-3.67-9.09-7.24-17.89-11.24-27.78
			c7.5,7.08,14.15,13.36,21.06,19.87C1799.34,707.72,1796.15,710.28,1792.91,712.9z M1802.61,700.61c-0.46,0.41-0.92,0.82-1.38,1.23
			c-6.49-6.96-12.93-13.97-19.49-20.85c-1.44-1.51-1.6-2.21,0.34-3.38c3.61-2.19,7.05-4.66,10.88-7.23
			C1796.22,680.6,1799.41,690.61,1802.61,700.61z M1790.19,666.09c0.6,0.61,2.41,1.27,0.51,2.53c-4.05,2.68-8.1,5.37-12.33,8.18
			c-1.47-9.19-2.83-17.79-4.27-26.77C1779.67,655.57,1784.96,660.79,1790.19,666.09z M1771.05,647.18
			c1.46,9.65,3.02,19.27,4.66,29.69c-7.27-4.43-13.72-8.47-20.31-12.27c-1.52-0.88-1.83-2.2-2.17-3.42
			c-2.62-9.31-5.09-18.66-7.73-28.47c7.41,5.65,15.43,9.33,23.61,12.68C1770.06,645.78,1770.86,645.88,1771.05,647.18z
			 M1770.11,628.43c-0.06,4.79-0.02,9.59-0.02,14.46c-7.7-3.01-15.49-6.59-22.75-12.22c6.91-1.58,13.3-2.94,19.64-4.54
			C1769.29,625.54,1770.14,626.08,1770.11,628.43z M1768.84,621.19c-6.82-2.98-13.03-5.65-19.21-8.4c-1.37-0.62-0.44-1.57-0.22-2.5
			c2.2-9.31,4.27-18.65,6.54-27.93c0.34-1.39,0.41-2.78,1.41-4.36C1761.12,592.15,1764.88,606.3,1768.84,621.19z M1866.43,611.77
			c-0.16,0.19-0.32,0.38-0.47,0.57c-17.05-7.14-34.09-14.29-51.14-21.42c-2.1-0.88-3.21-2.66-4.33-4.47
			c-3.86-6.21-7.73-12.41-12.11-19.44C1821.53,582.23,1843.98,597,1866.43,611.77z M1783.23,566.7c9.96-2.86,9.96-2.86,15.39,5.79
			c3.14,5.01,6.28,10.01,9.41,15.02c0.05,0.07-0.04,0.22-0.14,0.79c-15.17-5.08-30.28-10.15-46.13-15.46
			C1769.3,570.69,1776.26,568.7,1783.23,566.7z M1792.83,603.67c-8.46-7.62-16.89-15.28-25.34-22.92c-1.57-1.41-3.19-2.78-4.79-4.17
			c0.07-0.16,0.14-0.32,0.2-0.48c15.4,5.08,30.79,10.17,46.46,15.33c-4.38,4.18-9.02,8.52-13.53,12.97
			C1794.22,605.99,1793.64,604.41,1792.83,603.67z M1798.36,606.74c3.77-3.96,7.78-8.15,11.76-12.37c1.49-1.59,1.84-0.06,2.36,0.83
			c3.86,6.66,7.7,13.34,11.83,20.52C1815.14,612.55,1806.54,609.58,1798.36,606.74z M1830.01,616.85c-1.97,0.01-2.66-1.22-3.46-2.61
			c-3.77-6.58-7.57-13.14-11.78-20.41c19.18,8.39,37.74,15.81,56.14,22.99C1857.4,616.82,1843.71,616.79,1830.01,616.85z"/>
	</g>
</g>
<g>
	<polygon points="2023.2,827.32 2020.42,845.41 2051.03,845.41 2051.03,827.32 	"/>
	<g>
		<polygon points="1186.22,885.06 1226.57,786.27 1250.93,786.27 1291.28,885.76 1269.01,885.76 1238.4,810.62 1209.18,885.76 		"/>
		<g>
			<path class="st1" d="M1310.76,870.45c3.71-4.64,7.42-9.28,11.13-13.91c2.65,2.77,7.15,6.83,13.74,9.98
				c4.08,1.95,7.39,3.43,11.87,3.43c10.72,0,17.62-4.6,17.62-12.45c0-6.89-4.79-10.34-14.74-12.83l-11.68-3.06
				c-16.85-4.6-26.23-13.02-26.23-27c0-5.21,1.25-9.85,3.58-13.81c8.34-14.15,29.38-14.71,32.04-14.72
				c14.9-0.1,25.57,7.51,29.47,10.62c-2.78,5.1-5.57,10.2-8.35,15.31c-1.95-2.13-9.88-10.28-21.12-10.04
				c-1.12,0.02-11.22,0.48-14.52,6.08c-0.89,1.52-1.38,3.32-1.38,5.41c0,6.51,4.59,9.76,14.93,12.44l11.87,3.06
				c17.42,4.6,26.04,13.79,26.04,27.38c0,0.27-0.02,6.95-3.3,13.42c-5.87,11.57-20.3,18.56-33.4,18.77
				c-13.18,0.21-23.05-6.5-27.83-9.74C1316.12,875.83,1312.9,872.75,1310.76,870.45z"/>
		</g>
		<rect x="1413.73" y="788.36" width="22.26" height="98.8"/>
		<path d="M1449.91,848.19c2.78-18.09,2.78-18.09,2.78-18.09h23.66v-41.74h22.26v98.8h-22.26v-38.96H1449.91z"/>
		<polygon points="1561.23,786.96 1597.41,885.76 1619.67,885.76 1583.49,786.96 		"/>
		<path d="M1634.98,786.96l-19.48,58.44c-0.48,2.27-0.88,5.74,0,9.74c2.04,9.26,9.32,14.16,11.13,15.31
			c9.74-27.83,19.48-55.66,29.22-83.49H1634.98z"/>
		<path d="M1701.77,786.96h-22.26l1.39,69.57c0.86,3.65,3.87,14.31,13.91,22.26c10.76,8.53,22.59,8.4,27.83,8.35
			c5.51-0.06,19.61-0.21,30.61-11.13c8.94-8.88,10.69-19.77,11.13-23.66c0-21.8,0-43.6,0-65.4h-22.26
			c0.46,19.02,0.93,38.03,1.39,57.05c1.29,12.7-8.83,23.66-20.87,23.66s-22.16-10.95-20.87-23.66
			C1701.77,825,1701.77,805.98,1701.77,786.96z"/>
		<path d="M1792.22,786.96h22.26v66.79c-0.54,2.01-2.69,9.09-9.74,13.91c-5.1,3.49-10.21,4.06-12.52,4.17c0-27.83,0-55.66,0-83.49"
			/>
		<path class="st0" d="M1820.05,864.89h36.18v20.87h-52.88c3.54-1.99,9.77-6.22,13.91-13.91
			C1818.6,869.36,1819.47,866.98,1820.05,864.89z"/>
		<g>
			<path class="st2" d="M1917.85,786.03c10.79,0,19.29,2.97,25.63,9.04c6.34,6.07,9.44,14.16,9.44,24.55
				c0,10.25-3.24,18.48-9.58,24.55c-6.34,6.07-14.83,9.17-25.62,9.17h-17.8v30.48h-15.24v-97.78H1917.85z M1917.85,840.38
				c12.41,0,19.56-7.69,19.56-20.77s-7.15-20.77-19.42-20.77h-18.07v41.54H1917.85z"/>
		</g>
		<path d="M2056.6,805.05v-18.09h-72.36v98.8h72.36v-18.09c-16.7,0-33.4,0-50.09,0c0-20.87,0-41.74,0-62.62
			C2023.2,805.05,2039.9,805.05,2056.6,805.05z"/>
		<g>
			<path class="st1" d="M2081.5,871.94c3.71-4.64,7.42-9.28,11.13-13.91c2.65,2.76,7.15,6.83,13.74,9.98
				c4.08,1.95,7.39,3.43,11.87,3.43c10.72,0,17.62-4.6,17.62-12.45c0-6.89-4.79-10.34-14.74-12.83l-11.68-3.06
				c-16.85-4.6-26.23-13.02-26.23-27c0-5.21,1.25-9.85,3.58-13.81c8.34-14.15,29.38-14.71,32.04-14.72
				c14.9-0.1,25.57,7.51,29.47,10.62c-2.78,5.1-5.57,10.2-8.35,15.31c-1.95-2.13-9.88-10.28-21.12-10.04
				c-1.12,0.02-11.22,0.48-14.52,6.08c-0.89,1.52-1.38,3.32-1.38,5.41c0,6.51,4.59,9.76,14.93,12.44l11.87,3.06
				c17.42,4.6,26.04,13.79,26.04,27.38c0,0.27-0.02,6.95-3.3,13.42c-5.87,11.57-20.3,18.56-33.4,18.77
				c-13.18,0.21-23.05-6.5-27.83-9.74C2086.86,877.32,2083.65,874.24,2081.5,871.94z"/>
		</g>
	</g>
</g>
</svg>
